<svg width="512" height="512" viewBox="0 0 512 512" fill="none" xmlns="http://www.w3.org/2000/svg">
<rect width="512" height="512" fill="#27272A"/>
<path d="M227.2 255.5C227.2 268.1 230 278.717 235.6 287.35C241.433 295.75 249.017 302.05 258.35 306.25C267.917 310.45 278.417 312.55 289.85 312.55C301.517 312.55 311.55 311.033 319.95 308C328.35 304.967 335.7 301.233 342 296.8C348.533 292.133 354.367 287.35 359.5 282.45V361.55C349.933 368.083 339.433 373.567 328 378C316.8 382.667 302.217 385 284.25 385C263.017 385 243.65 381.967 226.15 375.9C208.65 369.833 193.717 361.083 181.35 349.65C168.983 338.217 159.417 324.567 152.65 308.7C145.883 292.833 142.5 275.1 142.5 255.5C142.5 235.9 145.883 218.167 152.65 202.3C159.417 186.433 168.983 172.783 181.35 161.35C193.717 149.917 208.65 141.167 226.15 135.1C243.65 129.033 263.017 126 284.25 126C302.217 126 316.8 128.217 328 132.65C339.433 137.083 349.933 142.683 359.5 149.45V228.55C354.367 223.65 348.533 218.867 342 214.2C335.7 209.533 328.35 205.8 319.95 203C311.55 199.967 301.517 198.45 289.85 198.45C278.417 198.45 267.917 200.55 258.35 204.75C249.017 208.95 241.433 215.367 235.6 224C230 232.4 227.2 242.9 227.2 255.5Z" fill="white"/>
</svg>
